<svg xmlns="http://www.w3.org/2000/svg" width="183.41" height="93.644" viewBox="0 0 183.41 93.644">
  <g id="Group_1555" data-name="Group 1555" transform="translate(-65.341 -99.156)">
    <g id="Group_1554" data-name="Group 1554" transform="translate(66.207 99.656)">
      <path id="Path_5050" data-name="Path 5050" d="M439.07,194.827a4.372,4.372,0,1,1-4.358-4.251,4.273,4.273,0,0,1,4.358,4.251m-7.65,0a3.3,3.3,0,0,0,2.844,3.364,3.379,3.379,0,0,0,3.711-3.118,3.288,3.288,0,1,0-6.554-.246m2.618,2.231h-.986v-4.253a8.6,8.6,0,0,1,1.635-.131,2.659,2.659,0,0,1,1.477.311,1.176,1.176,0,0,1,.416.936,1.088,1.088,0,0,1-.883.983v.051a1.261,1.261,0,0,1,.779,1.037,3.222,3.222,0,0,0,.311,1.065h-1.063a3.592,3.592,0,0,1-.336-1.039c-.08-.467-.34-.674-.883-.674h-.467Zm.027-2.411h.467c.543,0,.985-.182.985-.625,0-.387-.287-.647-.907-.647a2.46,2.46,0,0,0-.545.051Z" transform="translate(-270.892 -190.576)" fill="#00d880"/>
      <path id="Path_5051" data-name="Path 5051" d="M385.744,209.411c0-8.677,5.734-13.706,12.342-13.706a11.027,11.027,0,0,1,7.863,3.393l-3.114,3.79a6.574,6.574,0,0,0-4.616-2.079c-3.585,0-6.417,3.161-6.417,8.4,0,5.376,2.5,8.5,6.321,8.5a6.9,6.9,0,0,0,5.118-2.446l3.116,3.712a10.767,10.767,0,0,1-8.445,3.835c-6.632,0-12.168-4.6-12.168-13.4" transform="translate(-317.652 -185.197)" fill="#00d880"/>
      <path id="Path_5052" data-name="Path 5052" d="M397.314,209.971V195.939h5.91v14.636c0,5.12,1.612,6.89,4.538,6.89s4.634-1.77,4.634-6.89V195.939h5.7v14.032c0,8.777-3.571,12.6-10.334,12.6s-10.448-3.819-10.448-12.6" transform="translate(-305.518 -184.951)" fill="#00d880"/>
      <path id="Path_5053" data-name="Path 5053" d="M410.4,195.94h9.416c5.546,0,10.092,1.926,10.092,8.142,0,6.011-4.546,8.6-10.092,8.6h-3.506v9.41H410.4Zm8.934,12.045c3.112,0,4.78-1.331,4.78-3.9s-1.668-3.448-4.78-3.448h-3.024v7.351Zm-.6,3.135,4.087-3.782,8.342,14.751h-6.611Z" transform="translate(-291.797 -184.95)" fill="#00d880"/>
      <path id="Path_5054" data-name="Path 5054" d="M422.4,195.939h16.384V200.9H428.312v5.251h8.914V211.1h-8.914v6.025h10.871v4.958H422.4Z" transform="translate(-279.209 -184.951)" fill="#00d880"/>
      <path id="Path_5055" data-name="Path 5055" d="M393.835,214.815h-8.418v-1.586H404.1v1.586h-8.419v24.849h-1.844Z" transform="translate(-317.996 -166.818)" fill="#00d880"/>
      <rect id="Rectangle_209" data-name="Rectangle 209" width="1.844" height="26.435" transform="translate(91.177 46.409)" fill="#00d880"/>
      <path id="Path_5056" data-name="Path 5056" d="M400.887,226.641c0-8.386,4.573-13.649,11.3-13.649a9.1,9.1,0,0,1,6.874,3.163l-1.082,1.233a7.535,7.535,0,0,0-5.78-2.721c-5.792,0-9.379,4.616-9.379,11.95s3.549,12.1,9.23,12.1a8.514,8.514,0,0,0,6.683-3.257l1.082,1.154a9.79,9.79,0,0,1-7.863,3.78c-6.513,0-11.063-5.351-11.063-13.753" transform="translate(-301.771 -167.067)" fill="#00d880"/>
      <path id="Path_5057" data-name="Path 5057" d="M412.767,213.228h1.844v14.69h.088l12.793-14.69h2.2l-8.433,9.8,9.595,16.64h-2.125l-8.74-15.229-5.376,6.132v9.1h-1.844Z" transform="translate(-289.312 -166.819)" fill="#00d880"/>
      <path id="Path_5058" data-name="Path 5058" d="M423.687,213.228h14.466v1.586H425.531v10.014h10.6v1.588h-10.6v11.659h13.022v1.588H423.687Z" transform="translate(-277.858 -166.819)" fill="#00d880"/>
      <path id="Path_5059" data-name="Path 5059" d="M440.85,214.815h-8.416v-1.586h18.681v1.586h-8.42v24.849H440.85Z" transform="translate(-268.685 -166.818)" fill="#00d880"/>
      <path id="Path_5060" data-name="Path 5060" d="M341.728,234.439l25.7-30.822h-14.3a2.736,2.736,0,0,1-2.737-2.737c0-.093.008-.186.016-.281,0-.022.008-.054.008-.077.016-.077.031-.165.047-.242v-.016a2.728,2.728,0,0,1,2.666-2.113h27.86v27.86a2.732,2.732,0,0,1-2.121,2.659h-.016c-.077.016-.162.032-.242.047-.022,0-.054.007-.077.007-.093.008-.187.016-.28.016a2.733,2.733,0,0,1-2.737-2.729V212.489l-29.8,25.7" transform="translate(-329.025 -175.675)" fill="#00d880"/>
      <path id="Union_1" data-name="Union 1" d="M36.663,73.328V65.276h15.3v8.051ZM0,36.663A36.705,36.705,0,0,1,36.663,0V8.064a28.6,28.6,0,0,0,0,57.2v8.064A36.7,36.7,0,0,1,0,36.663Z" fill="#00d880" stroke="rgba(0,0,0,0)" stroke-width="1"/>
    </g>
    <path id="Path_5195" data-name="Path 5195" d="M7.913-12.585a3.872,3.872,0,0,0-3.136-1.349c-1.631,0-3.544.91-3.544,3.058,0,2.007,1.505,2.65,2.979,3.1,1.411.439,2.713.831,2.713,2.384A2.289,2.289,0,0,1,4.463-3.239a2.95,2.95,0,0,1-2.54-1.4L.95-3.913a4.289,4.289,0,0,0,3.5,1.647c1.756,0,3.622-.972,3.622-3.2S6.344-8.194,4.776-8.711c-1.239-.408-2.415-.768-2.415-2.18a2.183,2.183,0,0,1,2.368-2.086,2.663,2.663,0,0,1,2.289,1.113Zm7.135,5.536c-2.682,0-5.175.2-5.175,2.462a2.3,2.3,0,0,0,2.54,2.227,2.95,2.95,0,0,0,2.666-1.38h.031a7.318,7.318,0,0,0,.11,1.192h.957A10.059,10.059,0,0,1,16.051-4.2V-7.41A2.577,2.577,0,0,0,13.2-10.076a4.112,4.112,0,0,0-2.885,1.051l.6.706a3.121,3.121,0,0,1,2.18-.862,1.718,1.718,0,0,1,1.96,1.9Zm0,.831v.549A2.291,2.291,0,0,1,12.7-3.239c-.831,0-1.725-.345-1.725-1.4,0-1.4,2.023-1.584,3.764-1.584ZM21.9-9.888H20.175v-1.882c0-1.066.235-1.882,1.38-1.882a2.6,2.6,0,0,1,.737.11l.188-.941a3.37,3.37,0,0,0-.878-.11c-1.678,0-2.493,1.035-2.493,2.7v2.007H17.572v.894h1.537v6.445h1.066V-8.994H21.9Zm2.117,3.1a2.6,2.6,0,0,1,2.572-2.4,2.314,2.314,0,0,1,2.431,2.4Zm6.084.345a3.364,3.364,0,0,0-3.513-3.638,3.706,3.706,0,0,0-3.7,3.858A3.726,3.726,0,0,0,26.683-2.36a3.827,3.827,0,0,0,3.152-1.552l-.8-.627a2.78,2.78,0,0,1-2.352,1.27A2.677,2.677,0,0,1,24-5.936h6.084C30.1-6.124,30.1-6.3,30.1-6.438ZM33.865-3.3a.843.843,0,0,0-.847-.847.843.843,0,0,0-.847.847.843.843,0,0,0,.847.847A.843.843,0,0,0,33.865-3.3Zm6.963-2.164h5.739l1.223,2.917h1.255l-4.767-11.1h-1.1l-4.8,11.1h1.239ZM43.7-12.4l2.446,5.9H41.251ZM56.729-8.806A3.455,3.455,0,0,0,54-10.076a3.721,3.721,0,0,0-3.92,3.858A3.721,3.721,0,0,0,54-2.36a3.415,3.415,0,0,0,2.791-1.27l-.8-.6A2.367,2.367,0,0,1,54-3.27a2.752,2.752,0,0,1-2.791-2.948,2.768,2.768,0,0,1,2.807-2.964A2.234,2.234,0,0,1,55.9-8.21Zm7.841,0a3.455,3.455,0,0,0-2.729-1.27,3.721,3.721,0,0,0-3.92,3.858,3.721,3.721,0,0,0,3.92,3.858,3.415,3.415,0,0,0,2.791-1.27l-.8-.6a2.367,2.367,0,0,1-1.992.957A2.752,2.752,0,0,1,59.05-6.218a2.768,2.768,0,0,1,2.807-2.964,2.234,2.234,0,0,1,1.882.972Zm8.076,6.257c-.047-.5-.063-1.223-.063-1.615V-9.888H71.517v3.764c0,1.96-1.1,2.87-2.227,2.87-1.537,0-1.992-1.035-1.992-2.572V-9.888H66.232v4.5c0,1.819.925,3.027,2.791,3.027A2.861,2.861,0,0,0,71.532-3.8h.031c0,.314.031.862.063,1.255Zm2.76-5.724v5.724h1.066V-6.312c0-1.96,1.019-2.776,2.148-2.776a2.85,2.85,0,0,1,.753.094l.141-1a2.5,2.5,0,0,0-.706-.078,2.613,2.613,0,0,0-2.352,1.443h-.031c0-.314-.031-.862-.063-1.255H75.343C75.39-9.386,75.406-8.664,75.406-8.272ZM85.489-7.049c-2.682,0-5.175.2-5.175,2.462a2.3,2.3,0,0,0,2.54,2.227A2.95,2.95,0,0,0,85.52-3.74h.031a7.318,7.318,0,0,0,.11,1.192h.957A10.059,10.059,0,0,1,86.492-4.2V-7.41a2.577,2.577,0,0,0-2.854-2.666,4.112,4.112,0,0,0-2.885,1.051l.6.706a3.121,3.121,0,0,1,2.18-.862,1.718,1.718,0,0,1,1.96,1.9Zm0,.831v.549a2.291,2.291,0,0,1-2.352,2.431c-.831,0-1.725-.345-1.725-1.4,0-1.4,2.023-1.584,3.764-1.584Zm6.9-3.669h-2.07v-2.07H89.252v2.07H87.731v.894h1.521v4.579a1.75,1.75,0,0,0,1.882,1.96,3.445,3.445,0,0,0,1.255-.22L92.342-3.6a2.186,2.186,0,0,1-.925.235c-.643,0-1.1-.251-1.1-1.349V-8.994h2.07Zm2.258,3.1a2.6,2.6,0,0,1,2.572-2.4,2.314,2.314,0,0,1,2.431,2.4Zm6.084.345a3.364,3.364,0,0,0-3.513-3.638,3.706,3.706,0,0,0-3.7,3.858A3.726,3.726,0,0,0,97.313-2.36a3.827,3.827,0,0,0,3.152-1.552l-.8-.627a2.78,2.78,0,0,1-2.352,1.27,2.677,2.677,0,0,1-2.682-2.666h6.084C100.731-6.124,100.731-6.3,100.731-6.438ZM104.495-3.3a.843.843,0,0,0-.847-.847.843.843,0,0,0-.847.847.843.843,0,0,0,.847.847A.843.843,0,0,0,104.495-3.3Zm6.963-2.164H117.2l1.223,2.917h1.255l-4.767-11.1h-1.1l-4.8,11.1h1.239Zm2.87-6.931,2.446,5.9h-4.893Zm13.031,3.591a3.455,3.455,0,0,0-2.729-1.27,3.721,3.721,0,0,0-3.92,3.858,3.721,3.721,0,0,0,3.92,3.858,3.415,3.415,0,0,0,2.791-1.27l-.8-.6a2.367,2.367,0,0,1-1.992.957,2.752,2.752,0,0,1-2.791-2.948,2.768,2.768,0,0,1,2.807-2.964,2.234,2.234,0,0,1,1.882.972Zm7.841,0a3.455,3.455,0,0,0-2.729-1.27,3.721,3.721,0,0,0-3.92,3.858,3.721,3.721,0,0,0,3.92,3.858,3.415,3.415,0,0,0,2.791-1.27l-.8-.6a2.367,2.367,0,0,1-1.992.957,2.752,2.752,0,0,1-2.791-2.948,2.768,2.768,0,0,1,2.807-2.964,2.234,2.234,0,0,1,1.882.972Zm2.321,2.023a2.6,2.6,0,0,1,2.572-2.4,2.314,2.314,0,0,1,2.431,2.4Zm6.084.345a3.364,3.364,0,0,0-3.513-3.638,3.706,3.706,0,0,0-3.7,3.858,3.726,3.726,0,0,0,3.795,3.858,3.827,3.827,0,0,0,3.152-1.552l-.8-.627a2.78,2.78,0,0,1-2.352,1.27A2.677,2.677,0,0,1,137.5-5.936h6.084C143.6-6.124,143.6-6.3,143.6-6.438Zm7.01-2.321a3,3,0,0,0-2.572-1.317c-1.333,0-2.619.643-2.619,2.133,0,1.4,1.239,1.772,2.1,1.976,1.4.329,2.164.643,2.164,1.411,0,.957-.815,1.286-1.725,1.286a2.429,2.429,0,0,1-2.039-1.145l-.847.627a3.427,3.427,0,0,0,2.9,1.427c1.349,0,2.76-.6,2.76-2.274,0-1.145-.815-1.788-2.54-2.148-1.207-.251-1.756-.565-1.756-1.255,0-.815.784-1.145,1.552-1.145a1.99,1.99,0,0,1,1.8,1.035Zm6.963,0A3,3,0,0,0,155-10.076c-1.333,0-2.619.643-2.619,2.133,0,1.4,1.239,1.772,2.1,1.976,1.4.329,2.164.643,2.164,1.411,0,.957-.815,1.286-1.725,1.286a2.429,2.429,0,0,1-2.039-1.145l-.847.627a3.427,3.427,0,0,0,2.9,1.427c1.349,0,2.76-.6,2.76-2.274,0-1.145-.815-1.788-2.54-2.148-1.207-.251-1.756-.565-1.756-1.255,0-.815.784-1.145,1.552-1.145a1.99,1.99,0,0,1,1.8,1.035ZM160.9-9.888h-1.066v7.339H160.9Zm.22-2.823a.763.763,0,0,0-.753-.753.763.763,0,0,0-.753.753.763.763,0,0,0,.753.753A.763.763,0,0,0,161.121-12.71Zm3.748,8.923a3.385,3.385,0,0,0,2.776,1.427,3.689,3.689,0,0,0,3.795-3.858,3.689,3.689,0,0,0-3.795-3.858,3.335,3.335,0,0,0-2.776,1.458h-.031V-14.4h-1.066V-2.549h1.066V-3.787Zm5.441-2.431a2.721,2.721,0,0,1-2.776,2.948,2.8,2.8,0,0,1-2.823-2.948,2.817,2.817,0,0,1,2.823-2.964A2.734,2.734,0,0,1,170.31-6.218Zm4.516-8.186H173.76V-2.549h1.066Zm3.45,7.621a2.6,2.6,0,0,1,2.572-2.4,2.314,2.314,0,0,1,2.431,2.4Zm6.084.345a3.364,3.364,0,0,0-3.513-3.638,3.706,3.706,0,0,0-3.7,3.858,3.726,3.726,0,0,0,3.795,3.858,3.827,3.827,0,0,0,3.152-1.552l-.8-.627a2.78,2.78,0,0,1-2.352,1.27,2.677,2.677,0,0,1-2.682-2.666h6.084C184.361-6.124,184.361-6.3,184.361-6.438Z" transform="translate(64.391 195.066)" fill="#165d78"/>
  </g>
</svg>
